<svg width="960" height="780" viewBox="0 0 960 780" xmlns="http://www.w3.org/2000/svg">
  <defs><style>text{font-family:"Helvetica Neue",Helvetica,Arial,sans-serif}</style></defs>
  <rect width="960" height="780" fill="#ffffff"/>
  <text x="480" y="48" font-size="22" fill="#1e293b" font-weight="bold" text-anchor="middle">Model Selection Decision Funnel</text>
  <!-- funnel stages (trapezoids narrowing down) -->
  <polygon points="140,100 820,100 760,210 200,210" fill="#dbeafe" stroke="#1f6feb" stroke-width="1.5"/>
  <text x="480" y="145" font-size="16" fill="#1f6feb" font-weight="600" text-anchor="middle">1. Define Task Requirements</text>
  <text x="480" y="170" font-size="12" fill="#64748b" text-anchor="middle">Latency, accuracy, throughput, compliance constraints</text>
  <polygon points="200,220 760,220 710,330 250,330" fill="#ccfbf1" stroke="#0d9488" stroke-width="1.5"/>
  <text x="480" y="265" font-size="16" fill="#0d9488" font-weight="600" text-anchor="middle">2. Shortlist Candidate Models</text>
  <text x="480" y="290" font-size="12" fill="#64748b" text-anchor="middle">Benchmark scores, pricing, context window, modality</text>
  <polygon points="250,340 710,340 660,450 300,450" fill="#f1f5f9" stroke="#475569" stroke-width="1.5"/>
  <text x="480" y="385" font-size="16" fill="#475569" font-weight="600" text-anchor="middle">3. Prototype &amp; Evaluate</text>
  <text x="480" y="410" font-size="12" fill="#64748b" text-anchor="middle">A/B test with real prompts, measure cost per query</text>
  <polygon points="300,460 660,460 620,570 340,570" fill="#fef2f2" stroke="#dc2626" stroke-width="1.5"/>
  <text x="480" y="505" font-size="16" fill="#dc2626" font-weight="600" text-anchor="middle">4. Validate in Production</text>
  <text x="480" y="530" font-size="12" fill="#64748b" text-anchor="middle">Shadow deploy, monitor latency/cost/quality drift</text>
  <polygon points="340,580 620,580 580,690 380,690" fill="#1f6feb" stroke="#1f6feb" stroke-width="1.5" opacity="0.15"/>
  <rect x="380" y="580" width="200" height="110" fill="#1f6feb" rx="8"/>
  <text x="480" y="630" font-size="16" fill="#ffffff" font-weight="700" text-anchor="middle">5. Ship &amp; Monitor</text>
  <text x="480" y="655" font-size="12" fill="#dbeafe" text-anchor="middle">Continuous eval, router fallback</text>
  <!-- side annotations -->
  <text x="115" y="160" font-size="11" fill="#1f6feb" text-anchor="end" font-style="italic">All models</text>
  <text x="845" y="160" font-size="11" fill="#1f6feb" font-style="italic">~100+</text>
  <text x="170" y="280" font-size="11" fill="#0d9488" text-anchor="end" font-style="italic">Filtered</text>
  <text x="790" y="280" font-size="11" fill="#0d9488" font-style="italic">5-8</text>
  <text x="220" y="400" font-size="11" fill="#475569" text-anchor="end" font-style="italic">Tested</text>
  <text x="740" y="400" font-size="11" fill="#475569" font-style="italic">2-3</text>
  <text x="270" y="520" font-size="11" fill="#dc2626" text-anchor="end" font-style="italic">Validated</text>
  <text x="690" y="520" font-size="11" fill="#dc2626" font-style="italic">1-2</text>
  <!-- arrow down -->
  <polygon points="470,710 490,710 480,740" fill="#1f6feb"/>
  <text x="480" y="765" font-size="14" fill="#1e293b" font-weight="600" text-anchor="middle">Production Model</text>
</svg>