<svg width="960" height="840" viewBox="0 0 960 840" xmlns="http://www.w3.org/2000/svg">
  <defs><style>text{font-family:"Helvetica Neue",Helvetica,Arial,sans-serif}</style></defs>
  <rect width="960" height="840" fill="#ffffff"/>
  <text x="480" y="50" font-size="22" fill="#1e293b" font-weight="bold" text-anchor="middle">Quality vs. Cost Trade-Off Matrix</text>
  <!-- quadrant fills -->
  <rect x="100" y="80" width="380" height="340" fill="#ccfbf1" opacity="0.3" rx="8"/>
  <rect x="480" y="80" width="380" height="340" fill="#dbeafe" opacity="0.3" rx="8"/>
  <rect x="100" y="420" width="380" height="340" fill="#f8fafc" opacity="0.5" rx="8"/>
  <rect x="480" y="420" width="380" height="340" fill="#fef2f2" opacity="0.3" rx="8"/>
  <!-- axes -->
  <line x1="100" y1="420" x2="860" y2="420" stroke="#cbd5e1" stroke-width="1.5" stroke-dasharray="6,4"/>
  <line x1="480" y1="80" x2="480" y2="760" stroke="#cbd5e1" stroke-width="1.5" stroke-dasharray="6,4"/>
  <!-- quadrant labels -->
  <text x="290" y="130" font-size="13" fill="#0d9488" text-anchor="middle" font-style="italic" opacity="0.8">High Quality / Low Cost</text>
  <text x="670" y="130" font-size="13" fill="#1f6feb" text-anchor="middle" font-style="italic" opacity="0.8">High Quality / High Cost</text>
  <text x="290" y="720" font-size="13" fill="#64748b" text-anchor="middle" font-style="italic" opacity="0.8">Lower Quality / Low Cost</text>
  <text x="670" y="720" font-size="13" fill="#dc2626" text-anchor="middle" font-style="italic" opacity="0.8">Danger Zone</text>
  <!-- Frontier dot -->
  <circle cx="680" cy="200" r="28" fill="#1f6feb" opacity="0.08"/>
  <circle cx="680" cy="200" r="12" fill="#1f6feb" stroke="#ffffff" stroke-width="3"/>
  <text x="680" y="248" font-size="14" fill="#1f6feb" font-weight="600" text-anchor="middle">Frontier</text>
  <text x="680" y="268" font-size="11" fill="#64748b" text-anchor="middle">(Opus, o3, Ultra)</text>
  <!-- Mid-tier dot -->
  <circle cx="460" cy="320" r="24" fill="#0d9488" opacity="0.08"/>
  <circle cx="460" cy="320" r="10" fill="#0d9488" stroke="#ffffff" stroke-width="3"/>
  <text x="460" y="360" font-size="14" fill="#0d9488" font-weight="600" text-anchor="middle">Mid-tier</text>
  <text x="460" y="380" font-size="11" fill="#64748b" text-anchor="middle">(Sonnet, GPT-4o)</text>
  <!-- Lightweight dot -->
  <circle cx="260" cy="490" r="22" fill="#475569" opacity="0.08"/>
  <circle cx="260" cy="490" r="9" fill="#475569" stroke="#ffffff" stroke-width="3"/>
  <text x="260" y="530" font-size="14" fill="#475569" font-weight="600" text-anchor="middle">Lightweight</text>
  <text x="260" y="550" font-size="11" fill="#64748b" text-anchor="middle">(Haiku, Flash)</text>
  <!-- axis labels -->
  <text x="480" y="795" font-size="15" fill="#475569" text-anchor="middle">Cost &#x2192;</text>
  <text x="60" y="420" font-size="15" fill="#475569" text-anchor="middle" transform="rotate(-90 60,420)">Quality &#x2192;</text>
</svg>