<svg xmlns="http://www.w3.org/2000/svg" width="3200" height="2080" viewBox="0 0 3200 2080"><defs></defs><rect width="3200" height="2080" fill="#ffffff"/><text x="80" y="100" font-family="Helvetica Neue, Helvetica, Arial, sans-serif" font-size="50" font-weight="700" fill="#1e293b" text-anchor="start" data-role="title">Which Free MCP Servers Earn a Daily Slot?</text><rect x="80" y="140" width="2820" height="72" rx="8" fill="#e5e7eb"/><text x="340" y="184" font-family="Helvetica Neue, Helvetica, Arial, sans-serif" font-size="24" font-weight="700" fill="#1e293b" text-anchor="middle" data-role="body">Server</text><text x="830" y="184" font-family="Helvetica Neue, Helvetica, Arial, sans-serif" font-size="24" font-weight="700" fill="#1e293b" text-anchor="middle" data-role="body">Loop Value</text><text x="1290" y="184" font-family="Helvetica Neue, Helvetica, Arial, sans-serif" font-size="24" font-weight="700" fill="#1e293b" text-anchor="middle" data-role="body">Maintenance</text><text x="1750" y="184" font-family="Helvetica Neue, Helvetica, Arial, sans-serif" font-size="24" font-weight="700" fill="#1e293b" text-anchor="middle" data-role="body">Setup Friction</text><text x="2210" y="184" font-family="Helvetica Neue, Helvetica, Arial, sans-serif" font-size="24" font-weight="700" fill="#1e293b" text-anchor="middle" data-role="body">Free Tier</text><text x="2670" y="184" font-family="Helvetica Neue, Helvetica, Arial, sans-serif" font-size="24" font-weight="700" fill="#1e293b" text-anchor="middle" data-role="body">Security Posture</text><line x1="600" y1="140" x2="600" y2="1572" stroke="#e5e7eb" stroke-width="2" stroke-linecap="round"/><line x1="1060" y1="140" x2="1060" y2="1572" stroke="#e5e7eb" stroke-width="2" stroke-linecap="round"/><line x1="1520" y1="140" x2="1520" y2="1572" stroke="#e5e7eb" stroke-width="2" stroke-linecap="round"/><line x1="1980" y1="140" x2="1980" y2="1572" stroke="#e5e7eb" stroke-width="2" stroke-linecap="round"/><line x1="2440" y1="140" x2="2440" y2="1572" stroke="#e5e7eb" stroke-width="2" stroke-linecap="round"/><rect x="80" y="212" width="2820" height="136" rx="0" fill="#ccfbf1"/><line x1="80" y1="348" x2="2900" y2="348" stroke="#e5e7eb" stroke-width="1" stroke-linecap="round"/><text x="98" y="280" font-family="Helvetica Neue, Helvetica, Arial, sans-serif" font-size="24" font-weight="700" fill="#1e293b" text-anchor="start" data-role="body" dominant-baseline="central">GitHub MCP</text><rect x="755" y="258" width="150" height="44" rx="22" fill="#16a34a"/><text x="830" y="280" font-family="Helvetica Neue, Helvetica, Arial, sans-serif" font-size="23" font-weight="700" fill="#fff" text-anchor="middle" dominant-baseline="central" data-role="label">High</text><rect x="1215" y="258" width="150" height="44" rx="22" fill="#16a34a"/><text x="1290" y="280" font-family="Helvetica Neue, Helvetica, Arial, sans-serif" font-size="23" font-weight="700" fill="#fff" text-anchor="middle" dominant-baseline="central" data-role="label">High</text><rect x="1675" y="258" width="150" height="44" rx="22" fill="#94a3b8"/><text x="1750" y="280" font-family="Helvetica Neue, Helvetica, Arial, sans-serif" font-size="23" font-weight="700" fill="#fff" text-anchor="middle" dominant-baseline="central" data-role="label">Low</text><rect x="2135" y="258" width="150" height="44" rx="22" fill="#16a34a"/><text x="2210" y="280" font-family="Helvetica Neue, Helvetica, Arial, sans-serif" font-size="23" font-weight="700" fill="#fff" text-anchor="middle" dominant-baseline="central" data-role="label">High</text><rect x="2595" y="258" width="150" height="44" rx="22" fill="#16a34a"/><text x="2670" y="280" font-family="Helvetica Neue, Helvetica, Arial, sans-serif" font-size="23" font-weight="700" fill="#fff" text-anchor="middle" dominant-baseline="central" data-role="label">High</text><rect x="80" y="348" width="2820" height="136" rx="0" fill="#ccfbf1"/><line x1="80" y1="484" x2="2900" y2="484" stroke="#e5e7eb" stroke-width="1" stroke-linecap="round"/><text x="98" y="416" font-family="Helvetica Neue, Helvetica, Arial, sans-serif" font-size="24" font-weight="700" fill="#1e293b" text-anchor="start" data-role="body" dominant-baseline="central">Playwright MCP</text><rect x="755" y="394" width="150" height="44" rx="22" fill="#16a34a"/><text x="830" y="416" font-family="Helvetica Neue, Helvetica, Arial, sans-serif" font-size="23" font-weight="700" fill="#fff" text-anchor="middle" dominant-baseline="central" data-role="label">High</text><rect x="1215" y="394" width="150" height="44" rx="22" fill="#16a34a"/><text x="1290" y="416" font-family="Helvetica Neue, Helvetica, Arial, sans-serif" font-size="23" font-weight="700" fill="#fff" text-anchor="middle" dominant-baseline="central" data-role="label">High</text><rect x="1675" y="394" width="150" height="44" rx="22" fill="#94a3b8"/><text x="1750" y="416" font-family="Helvetica Neue, Helvetica, Arial, sans-serif" font-size="23" font-weight="700" fill="#fff" text-anchor="middle" dominant-baseline="central" data-role="label">Low</text><rect x="2135" y="394" width="150" height="44" rx="22" fill="#16a34a"/><text x="2210" y="416" font-family="Helvetica Neue, Helvetica, Arial, sans-serif" font-size="23" font-weight="700" fill="#fff" text-anchor="middle" dominant-baseline="central" data-role="label">High</text><rect x="2595" y="394" width="150" height="44" rx="22" fill="#16a34a"/><text x="2670" y="416" font-family="Helvetica Neue, Helvetica, Arial, sans-serif" font-size="23" font-weight="700" fill="#fff" text-anchor="middle" dominant-baseline="central" data-role="label">High</text><rect x="80" y="484" width="2820" height="136" rx="0" fill="#ccfbf1"/><line x1="80" y1="620" x2="2900" y2="620" stroke="#e5e7eb" stroke-width="1" stroke-linecap="round"/><text x="98" y="552" font-family="Helvetica Neue, Helvetica, Arial, sans-serif" font-size="24" font-weight="700" fill="#1e293b" text-anchor="start" data-role="body" dominant-baseline="central">MCP Filesystem</text><rect x="755" y="530" width="150" height="44" rx="22" fill="#16a34a"/><text x="830" y="552" font-family="Helvetica Neue, Helvetica, Arial, sans-serif" font-size="23" font-weight="700" fill="#fff" text-anchor="middle" dominant-baseline="central" data-role="label">High</text><rect x="1215" y="530" width="150" height="44" rx="22" fill="#16a34a"/><text x="1290" y="552" font-family="Helvetica Neue, Helvetica, Arial, sans-serif" font-size="23" font-weight="700" fill="#fff" text-anchor="middle" dominant-baseline="central" data-role="label">High</text><rect x="1675" y="530" width="150" height="44" rx="22" fill="#94a3b8"/><text x="1750" y="552" font-family="Helvetica Neue, Helvetica, Arial, sans-serif" font-size="23" font-weight="700" fill="#fff" text-anchor="middle" dominant-baseline="central" data-role="label">Low</text><rect x="2135" y="530" width="150" height="44" rx="22" fill="#16a34a"/><text x="2210" y="552" font-family="Helvetica Neue, Helvetica, Arial, sans-serif" font-size="23" font-weight="700" fill="#fff" text-anchor="middle" dominant-baseline="central" data-role="label">High</text><rect x="2595" y="530" width="150" height="44" rx="22" fill="#d97706"/><text x="2670" y="552" font-family="Helvetica Neue, Helvetica, Arial, sans-serif" font-size="23" font-weight="700" fill="#fff" text-anchor="middle" dominant-baseline="central" data-role="label">Medium</text><rect x="80" y="620" width="2820" height="136" rx="0" fill="#f8fafc"/><line x1="80" y1="756" x2="2900" y2="756" stroke="#e5e7eb" stroke-width="1" stroke-linecap="round"/><text x="98" y="688" font-family="Helvetica Neue, Helvetica, Arial, sans-serif" font-size="24" font-weight="400" fill="#1e293b" text-anchor="start" data-role="body" dominant-baseline="central">Supabase MCP</text><rect x="755" y="666" width="150" height="44" rx="22" fill="#16a34a"/><text x="830" y="688" font-family="Helvetica Neue, Helvetica, Arial, sans-serif" font-size="23" font-weight="700" fill="#fff" text-anchor="middle" dominant-baseline="central" data-role="label">High</text><rect x="1215" y="666" width="150" height="44" rx="22" fill="#16a34a"/><text x="1290" y="688" font-family="Helvetica Neue, Helvetica, Arial, sans-serif" font-size="23" font-weight="700" fill="#fff" text-anchor="middle" dominant-baseline="central" data-role="label">High</text><rect x="1675" y="666" width="150" height="44" rx="22" fill="#94a3b8"/><text x="1750" y="688" font-family="Helvetica Neue, Helvetica, Arial, sans-serif" font-size="23" font-weight="700" fill="#fff" text-anchor="middle" dominant-baseline="central" data-role="label">Low</text><rect x="2135" y="666" width="150" height="44" rx="22" fill="#16a34a"/><text x="2210" y="688" font-family="Helvetica Neue, Helvetica, Arial, sans-serif" font-size="23" font-weight="700" fill="#fff" text-anchor="middle" dominant-baseline="central" data-role="label">High</text><rect x="2595" y="666" width="150" height="44" rx="22" fill="#16a34a"/><text x="2670" y="688" font-family="Helvetica Neue, Helvetica, Arial, sans-serif" font-size="23" font-weight="700" fill="#fff" text-anchor="middle" dominant-baseline="central" data-role="label">High</text><rect x="80" y="756" width="2820" height="136" rx="0" fill="#ffffff"/><line x1="80" y1="892" x2="2900" y2="892" stroke="#e5e7eb" stroke-width="1" stroke-linecap="round"/><text x="98" y="824" font-family="Helvetica Neue, Helvetica, Arial, sans-serif" font-size="24" font-weight="400" fill="#1e293b" text-anchor="start" data-role="body" dominant-baseline="central">MCP Fetch</text><rect x="755" y="802" width="150" height="44" rx="22" fill="#d97706"/><text x="830" y="824" font-family="Helvetica Neue, Helvetica, Arial, sans-serif" font-size="23" font-weight="700" fill="#fff" text-anchor="middle" dominant-baseline="central" data-role="label">Medium</text><rect x="1215" y="802" width="150" height="44" rx="22" fill="#16a34a"/><text x="1290" y="824" font-family="Helvetica Neue, Helvetica, Arial, sans-serif" font-size="23" font-weight="700" fill="#fff" text-anchor="middle" dominant-baseline="central" data-role="label">High</text><rect x="1675" y="802" width="150" height="44" rx="22" fill="#94a3b8"/><text x="1750" y="824" font-family="Helvetica Neue, Helvetica, Arial, sans-serif" font-size="23" font-weight="700" fill="#fff" text-anchor="middle" dominant-baseline="central" data-role="label">Low</text><rect x="2135" y="802" width="150" height="44" rx="22" fill="#16a34a"/><text x="2210" y="824" font-family="Helvetica Neue, Helvetica, Arial, sans-serif" font-size="23" font-weight="700" fill="#fff" text-anchor="middle" dominant-baseline="central" data-role="label">High</text><rect x="2595" y="802" width="150" height="44" rx="22" fill="#16a34a"/><text x="2670" y="824" font-family="Helvetica Neue, Helvetica, Arial, sans-serif" font-size="23" font-weight="700" fill="#fff" text-anchor="middle" dominant-baseline="central" data-role="label">High</text><rect x="80" y="892" width="2820" height="136" rx="0" fill="#f8fafc"/><line x1="80" y1="1028" x2="2900" y2="1028" stroke="#e5e7eb" stroke-width="1" stroke-linecap="round"/><text x="98" y="960" font-family="Helvetica Neue, Helvetica, Arial, sans-serif" font-size="24" font-weight="400" fill="#1e293b" text-anchor="start" data-role="body" dominant-baseline="central">Cloudflare Suite</text><rect x="755" y="938" width="150" height="44" rx="22" fill="#16a34a"/><text x="830" y="960" font-family="Helvetica Neue, Helvetica, Arial, sans-serif" font-size="23" font-weight="700" fill="#fff" text-anchor="middle" dominant-baseline="central" data-role="label">High</text><rect x="1215" y="938" width="150" height="44" rx="22" fill="#16a34a"/><text x="1290" y="960" font-family="Helvetica Neue, Helvetica, Arial, sans-serif" font-size="23" font-weight="700" fill="#fff" text-anchor="middle" dominant-baseline="central" data-role="label">High</text><rect x="1675" y="938" width="150" height="44" rx="22" fill="#94a3b8"/><text x="1750" y="960" font-family="Helvetica Neue, Helvetica, Arial, sans-serif" font-size="23" font-weight="700" fill="#fff" text-anchor="middle" dominant-baseline="central" data-role="label">Low</text><rect x="2135" y="938" width="150" height="44" rx="22" fill="#16a34a"/><text x="2210" y="960" font-family="Helvetica Neue, Helvetica, Arial, sans-serif" font-size="23" font-weight="700" fill="#fff" text-anchor="middle" dominant-baseline="central" data-role="label">High</text><rect x="2595" y="938" width="150" height="44" rx="22" fill="#d97706"/><text x="2670" y="960" font-family="Helvetica Neue, Helvetica, Arial, sans-serif" font-size="23" font-weight="700" fill="#fff" text-anchor="middle" dominant-baseline="central" data-role="label">Medium</text><rect x="80" y="1028" width="2820" height="136" rx="0" fill="#ffffff"/><line x1="80" y1="1164" x2="2900" y2="1164" stroke="#e5e7eb" stroke-width="1" stroke-linecap="round"/><text x="98" y="1096" font-family="Helvetica Neue, Helvetica, Arial, sans-serif" font-size="24" font-weight="400" fill="#1e293b" text-anchor="start" data-role="body" dominant-baseline="central">Context7</text><rect x="755" y="1074" width="150" height="44" rx="22" fill="#16a34a"/><text x="830" y="1096" font-family="Helvetica Neue, Helvetica, Arial, sans-serif" font-size="23" font-weight="700" fill="#fff" text-anchor="middle" dominant-baseline="central" data-role="label">High</text><rect x="1215" y="1074" width="150" height="44" rx="22" fill="#d97706"/><text x="1290" y="1096" font-family="Helvetica Neue, Helvetica, Arial, sans-serif" font-size="23" font-weight="700" fill="#fff" text-anchor="middle" dominant-baseline="central" data-role="label">Medium</text><rect x="1675" y="1074" width="150" height="44" rx="22" fill="#94a3b8"/><text x="1750" y="1096" font-family="Helvetica Neue, Helvetica, Arial, sans-serif" font-size="23" font-weight="700" fill="#fff" text-anchor="middle" dominant-baseline="central" data-role="label">Low</text><rect x="2135" y="1074" width="150" height="44" rx="22" fill="#d97706"/><text x="2210" y="1096" font-family="Helvetica Neue, Helvetica, Arial, sans-serif" font-size="23" font-weight="700" fill="#fff" text-anchor="middle" dominant-baseline="central" data-role="label">Medium</text><rect x="2595" y="1074" width="150" height="44" rx="22" fill="#d97706"/><text x="2670" y="1096" font-family="Helvetica Neue, Helvetica, Arial, sans-serif" font-size="23" font-weight="700" fill="#fff" text-anchor="middle" dominant-baseline="central" data-role="label">Medium</text><rect x="80" y="1164" width="2820" height="136" rx="0" fill="#f8fafc"/><line x1="80" y1="1300" x2="2900" y2="1300" stroke="#e5e7eb" stroke-width="1" stroke-linecap="round"/><text x="98" y="1232" font-family="Helvetica Neue, Helvetica, Arial, sans-serif" font-size="24" font-weight="400" fill="#1e293b" text-anchor="start" data-role="body" dominant-baseline="central">MCP Git</text><rect x="755" y="1210" width="150" height="44" rx="22" fill="#d97706"/><text x="830" y="1232" font-family="Helvetica Neue, Helvetica, Arial, sans-serif" font-size="23" font-weight="700" fill="#fff" text-anchor="middle" dominant-baseline="central" data-role="label">Medium</text><rect x="1215" y="1210" width="150" height="44" rx="22" fill="#d97706"/><text x="1290" y="1232" font-family="Helvetica Neue, Helvetica, Arial, sans-serif" font-size="23" font-weight="700" fill="#fff" text-anchor="middle" dominant-baseline="central" data-role="label">Medium</text><rect x="1675" y="1210" width="150" height="44" rx="22" fill="#94a3b8"/><text x="1750" y="1232" font-family="Helvetica Neue, Helvetica, Arial, sans-serif" font-size="23" font-weight="700" fill="#fff" text-anchor="middle" dominant-baseline="central" data-role="label">Low</text><rect x="2135" y="1210" width="150" height="44" rx="22" fill="#16a34a"/><text x="2210" y="1232" font-family="Helvetica Neue, Helvetica, Arial, sans-serif" font-size="23" font-weight="700" fill="#fff" text-anchor="middle" dominant-baseline="central" data-role="label">High</text><rect x="2595" y="1210" width="150" height="44" rx="22" fill="#d97706"/><text x="2670" y="1232" font-family="Helvetica Neue, Helvetica, Arial, sans-serif" font-size="23" font-weight="700" fill="#fff" text-anchor="middle" dominant-baseline="central" data-role="label">Medium</text><rect x="80" y="1300" width="2820" height="136" rx="0" fill="#ffffff"/><line x1="80" y1="1436" x2="2900" y2="1436" stroke="#e5e7eb" stroke-width="1" stroke-linecap="round"/><text x="98" y="1368" font-family="Helvetica Neue, Helvetica, Arial, sans-serif" font-size="24" font-weight="400" fill="#1e293b" text-anchor="start" data-role="body" dominant-baseline="central">MCP Memory</text><rect x="755" y="1346" width="150" height="44" rx="22" fill="#d97706"/><text x="830" y="1368" font-family="Helvetica Neue, Helvetica, Arial, sans-serif" font-size="23" font-weight="700" fill="#fff" text-anchor="middle" dominant-baseline="central" data-role="label">Medium</text><rect x="1215" y="1346" width="150" height="44" rx="22" fill="#d97706"/><text x="1290" y="1368" font-family="Helvetica Neue, Helvetica, Arial, sans-serif" font-size="23" font-weight="700" fill="#fff" text-anchor="middle" dominant-baseline="central" data-role="label">Medium</text><rect x="1675" y="1346" width="150" height="44" rx="22" fill="#94a3b8"/><text x="1750" y="1368" font-family="Helvetica Neue, Helvetica, Arial, sans-serif" font-size="23" font-weight="700" fill="#fff" text-anchor="middle" dominant-baseline="central" data-role="label">Low</text><rect x="2135" y="1346" width="150" height="44" rx="22" fill="#16a34a"/><text x="2210" y="1368" font-family="Helvetica Neue, Helvetica, Arial, sans-serif" font-size="23" font-weight="700" fill="#fff" text-anchor="middle" dominant-baseline="central" data-role="label">High</text><rect x="2595" y="1346" width="150" height="44" rx="22" fill="#d97706"/><text x="2670" y="1368" font-family="Helvetica Neue, Helvetica, Arial, sans-serif" font-size="23" font-weight="700" fill="#fff" text-anchor="middle" dominant-baseline="central" data-role="label">Medium</text><rect x="80" y="1436" width="2820" height="136" rx="0" fill="#f8fafc"/><text x="98" y="1504" font-family="Helvetica Neue, Helvetica, Arial, sans-serif" font-size="24" font-weight="400" fill="#1e293b" text-anchor="start" data-role="body" dominant-baseline="central">Sequential Thinking</text><rect x="755" y="1482" width="150" height="44" rx="22" fill="#94a3b8"/><text x="830" y="1504" font-family="Helvetica Neue, Helvetica, Arial, sans-serif" font-size="23" font-weight="700" fill="#fff" text-anchor="middle" dominant-baseline="central" data-role="label">Low</text><rect x="1215" y="1482" width="150" height="44" rx="22" fill="#d97706"/><text x="1290" y="1504" font-family="Helvetica Neue, Helvetica, Arial, sans-serif" font-size="23" font-weight="700" fill="#fff" text-anchor="middle" dominant-baseline="central" data-role="label">Medium</text><rect x="1675" y="1482" width="150" height="44" rx="22" fill="#94a3b8"/><text x="1750" y="1504" font-family="Helvetica Neue, Helvetica, Arial, sans-serif" font-size="23" font-weight="700" fill="#fff" text-anchor="middle" dominant-baseline="central" data-role="label">Low</text><rect x="2135" y="1482" width="150" height="44" rx="22" fill="#16a34a"/><text x="2210" y="1504" font-family="Helvetica Neue, Helvetica, Arial, sans-serif" font-size="23" font-weight="700" fill="#fff" text-anchor="middle" dominant-baseline="central" data-role="label">High</text><rect x="2595" y="1482" width="150" height="44" rx="22" fill="#94a3b8"/><text x="2670" y="1504" font-family="Helvetica Neue, Helvetica, Arial, sans-serif" font-size="23" font-weight="700" fill="#fff" text-anchor="middle" dominant-baseline="central" data-role="label">Low</text><rect x="80" y="140" width="2820" height="1432" rx="0" fill="none" stroke="#e5e7eb" stroke-width="2"/><line x1="2910" y1="218" x2="2910" y2="614" stroke="#0d9488" stroke-width="6" stroke-linecap="round"/><line x1="2910" y1="218" x2="2930" y2="218" stroke="#0d9488" stroke-width="6" stroke-linecap="round"/><line x1="2910" y1="614" x2="2930" y2="614" stroke="#0d9488" stroke-width="6" stroke-linecap="round"/><rect x="2934" y="366" width="200" height="44" rx="22" fill="#0d9488"/><text x="3034" y="388" font-family="Helvetica Neue, Helvetica, Arial, sans-serif" font-size="23" font-weight="700" fill="#ffffff" text-anchor="middle" data-role="label">Starter Stack</text><rect x="80" y="1594" width="2820" height="88" rx="10" fill="#f8fafc"/><text x="104" y="1638" font-family="Helvetica Neue, Helvetica, Arial, sans-serif" font-size="24" font-weight="400" fill="#475569" text-anchor="start" data-role="body" dominant-baseline="central">Start with the top 3 — add servers only when they remove a real daily friction point.</text><text x="80" y="1724" font-family="Helvetica Neue, Helvetica, Arial, sans-serif" font-size="18" font-weight="400" fill="#94a3b8" text-anchor="start" data-role="caption">Source: github.com/github-mcp-server, microsoft/playwright-mcp, modelcontextprotocol/servers — 2026-06-28</text></svg>