<svg xmlns="http://www.w3.org/2000/svg" width="3200" height="1800" viewBox="0 0 3200 1800"><defs><marker id="pa_0d9488" viewBox="0 0 12 12" refX="9" refY="6" markerWidth="7" markerHeight="7" orient="auto-start-reverse"><path d="M1,1 L11,6 L1,11 z" fill="#0d9488"/></marker><marker id="pa_7c3aed" viewBox="0 0 12 12" refX="9" refY="6" markerWidth="7" markerHeight="7" orient="auto-start-reverse"><path d="M1,1 L11,6 L1,11 z" fill="#7c3aed"/></marker><marker id="pa_1f6feb" viewBox="0 0 12 12" refX="9" refY="6" markerWidth="7" markerHeight="7" orient="auto-start-reverse"><path d="M1,1 L11,6 L1,11 z" fill="#1f6feb"/></marker></defs><rect width="3200" height="1800" fill="#ffffff"/><text x="1600" y="100" font-family="Helvetica Neue, Helvetica, Arial, sans-serif" font-size="50" font-weight="700" fill="#1e293b" text-anchor="middle" data-role="title">Top 10 MCP Servers — Developer Daily Loop Workflow Map</text><rect x="70" y="140" width="3060" height="350" rx="14" fill="#dbeafe" stroke="#1f6feb" stroke-width="2"/><rect x="70" y="140" width="210" height="350" rx="14" fill="#1f6feb"/><rect x="266" y="140" width="14" height="350" rx="0" fill="#1f6feb"/><text x="175" y="315" font-family="Helvetica Neue, Helvetica, Arial, sans-serif" font-size="24" font-weight="700" fill="#ffffff" text-anchor="middle" data-role="body" dominant-baseline="central">Repo Work</text><rect x="304" y="276" width="230" height="78" rx="10" fill="#ffffff" stroke="#1f6feb" stroke-width="3"/><text x="419" y="304" font-family="Helvetica Neue, Helvetica, Arial, sans-serif" font-size="24" font-weight="700" fill="#1e293b" text-anchor="middle" data-role="body" dominant-baseline="central">MCP Filesystem</text><rect x="369" y="327" width="100" height="28" rx="14" fill="#94a3b8"/><text x="419" y="341" font-family="Helvetica Neue, Helvetica, Arial, sans-serif" font-size="18" font-weight="400" fill="#ffffff" text-anchor="middle" data-role="caption" dominant-baseline="central">local</text><line x1="534" y1="315" x2="594" y2="315" stroke="#1f6feb" stroke-width="6" stroke-linecap="round" marker-end="url(#pa_1f6feb)"/><rect x="594" y="276" width="200" height="78" rx="10" fill="#ffffff" stroke="#1f6feb" stroke-width="3"/><text x="694" y="304" font-family="Helvetica Neue, Helvetica, Arial, sans-serif" font-size="24" font-weight="700" fill="#1e293b" text-anchor="middle" data-role="body" dominant-baseline="central">MCP Git</text><rect x="644" y="327" width="100" height="28" rx="14" fill="#94a3b8"/><text x="694" y="341" font-family="Helvetica Neue, Helvetica, Arial, sans-serif" font-size="18" font-weight="400" fill="#ffffff" text-anchor="middle" data-role="caption" dominant-baseline="central">local</text><line x1="794" y1="315" x2="854" y2="315" stroke="#1f6feb" stroke-width="6" stroke-linecap="round" marker-end="url(#pa_1f6feb)"/><rect x="854" y="276" width="240" height="78" rx="10" fill="#ffffff" stroke="#1f6feb" stroke-width="3"/><text x="974" y="304" font-family="Helvetica Neue, Helvetica, Arial, sans-serif" font-size="24" font-weight="700" fill="#1e293b" text-anchor="middle" data-role="body" dominant-baseline="central">GitHub MCP</text><rect x="892" y="327" width="164" height="28" rx="14" fill="#0d9488"/><text x="974" y="341" font-family="Helvetica Neue, Helvetica, Arial, sans-serif" font-size="18" font-weight="400" fill="#ffffff" text-anchor="middle" data-role="caption" dominant-baseline="central">remote OAuth</text><line x1="1094" y1="315" x2="1154" y2="315" stroke="#1f6feb" stroke-width="6" stroke-linecap="round" stroke-dasharray="12,6" marker-end="url(#pa_1f6feb)"/><rect x="1154" y="276" width="265" height="78" rx="10" fill="#dbeafe" stroke="#1f6feb" stroke-width="3" stroke-dasharray="8,4"/><text x="1286" y="304" font-family="Helvetica Neue, Helvetica, Arial, sans-serif" font-size="24" font-weight="400" fill="#475569" text-anchor="middle" data-role="body" dominant-baseline="central">Cloudflare Suite</text><rect x="1204" y="327" width="164" height="28" rx="14" fill="#0d9488"/><text x="1286" y="341" font-family="Helvetica Neue, Helvetica, Arial, sans-serif" font-size="18" font-weight="400" fill="#ffffff" text-anchor="middle" data-role="caption" dominant-baseline="central">remote OAuth</text><rect x="70" y="538" width="3060" height="350" rx="14" fill="#ccfbf1" stroke="#0d9488" stroke-width="2"/><rect x="70" y="538" width="210" height="350" rx="14" fill="#0d9488"/><rect x="266" y="538" width="14" height="350" rx="0" fill="#0d9488"/><text x="175" y="697" font-family="Helvetica Neue, Helvetica, Arial, sans-serif" font-size="24" font-weight="700" fill="#ffffff" text-anchor="middle" data-role="body"><tspan x="175" dy="0">Browser &amp;</tspan><tspan x="175" dy="32">Debug</tspan></text><rect x="304" y="674" width="260" height="78" rx="10" fill="#ffffff" stroke="#0d9488" stroke-width="3"/><text x="434" y="702" font-family="Helvetica Neue, Helvetica, Arial, sans-serif" font-size="24" font-weight="700" fill="#1e293b" text-anchor="middle" data-role="body" dominant-baseline="central">Playwright MCP</text><rect x="384" y="725" width="100" height="28" rx="14" fill="#94a3b8"/><text x="434" y="739" font-family="Helvetica Neue, Helvetica, Arial, sans-serif" font-size="18" font-weight="400" fill="#ffffff" text-anchor="middle" data-role="caption" dominant-baseline="central">local</text><line x1="564" y1="713" x2="624" y2="713" stroke="#0d9488" stroke-width="6" stroke-linecap="round" marker-end="url(#pa_0d9488)"/><rect x="624" y="674" width="220" height="78" rx="10" fill="#ffffff" stroke="#0d9488" stroke-width="3"/><text x="734" y="702" font-family="Helvetica Neue, Helvetica, Arial, sans-serif" font-size="24" font-weight="700" fill="#1e293b" text-anchor="middle" data-role="body" dominant-baseline="central">MCP Fetch</text><rect x="684" y="725" width="100" height="28" rx="14" fill="#94a3b8"/><text x="734" y="739" font-family="Helvetica Neue, Helvetica, Arial, sans-serif" font-size="18" font-weight="400" fill="#ffffff" text-anchor="middle" data-role="caption" dominant-baseline="central">local</text><rect x="70" y="936" width="3060" height="350" rx="14" fill="#ede9fe" stroke="#7c3aed" stroke-width="2"/><rect x="70" y="936" width="210" height="350" rx="14" fill="#7c3aed"/><rect x="266" y="936" width="14" height="350" rx="0" fill="#7c3aed"/><text x="175" y="1095" font-family="Helvetica Neue, Helvetica, Arial, sans-serif" font-size="24" font-weight="700" fill="#ffffff" text-anchor="middle" data-role="body"><tspan x="175" dy="0">Docs &amp;</tspan><tspan x="175" dy="32">Database</tspan></text><rect x="304" y="1072" width="210" height="78" rx="10" fill="#ffffff" stroke="#7c3aed" stroke-width="3"/><text x="409" y="1100" font-family="Helvetica Neue, Helvetica, Arial, sans-serif" font-size="24" font-weight="700" fill="#1e293b" text-anchor="middle" data-role="body" dominant-baseline="central">Context7</text><rect x="359" y="1123" width="100" height="28" rx="14" fill="#1f6feb"/><text x="409" y="1137" font-family="Helvetica Neue, Helvetica, Arial, sans-serif" font-size="18" font-weight="400" fill="#ffffff" text-anchor="middle" data-role="caption" dominant-baseline="central">remote</text><line x1="514" y1="1111" x2="574" y2="1111" stroke="#7c3aed" stroke-width="6" stroke-linecap="round" marker-end="url(#pa_7c3aed)"/><rect x="574" y="1072" width="240" height="78" rx="10" fill="#ffffff" stroke="#7c3aed" stroke-width="3"/><text x="694" y="1100" font-family="Helvetica Neue, Helvetica, Arial, sans-serif" font-size="24" font-weight="700" fill="#1e293b" text-anchor="middle" data-role="body" dominant-baseline="central">Supabase MCP</text><rect x="612" y="1123" width="164" height="28" rx="14" fill="#0d9488"/><text x="694" y="1137" font-family="Helvetica Neue, Helvetica, Arial, sans-serif" font-size="18" font-weight="400" fill="#ffffff" text-anchor="middle" data-role="caption" dominant-baseline="central">remote OAuth</text><line x1="814" y1="1111" x2="874" y2="1111" stroke="#7c3aed" stroke-width="6" stroke-linecap="round" marker-end="url(#pa_7c3aed)"/><rect x="874" y="1072" width="220" height="78" rx="10" fill="#ffffff" stroke="#7c3aed" stroke-width="3"/><text x="984" y="1100" font-family="Helvetica Neue, Helvetica, Arial, sans-serif" font-size="24" font-weight="700" fill="#1e293b" text-anchor="middle" data-role="body" dominant-baseline="central">MCP Memory</text><rect x="934" y="1123" width="100" height="28" rx="14" fill="#94a3b8"/><text x="984" y="1137" font-family="Helvetica Neue, Helvetica, Arial, sans-serif" font-size="18" font-weight="400" fill="#ffffff" text-anchor="middle" data-role="caption" dominant-baseline="central">local</text><line x1="1094" y1="1111" x2="1154" y2="1111" stroke="#7c3aed" stroke-width="6" stroke-linecap="round" stroke-dasharray="12,6" marker-end="url(#pa_7c3aed)"/><rect x="1154" y="1072" width="265" height="78" rx="10" fill="#ede9fe" stroke="#7c3aed" stroke-width="3" stroke-dasharray="8,4"/><text x="1286" y="1100" font-family="Helvetica Neue, Helvetica, Arial, sans-serif" font-size="24" font-weight="400" fill="#475569" text-anchor="middle" data-role="body" dominant-baseline="central">Sequential Thinking</text><rect x="1236" y="1123" width="100" height="28" rx="14" fill="#94a3b8"/><text x="1286" y="1137" font-family="Helvetica Neue, Helvetica, Arial, sans-serif" font-size="18" font-weight="400" fill="#ffffff" text-anchor="middle" data-role="caption" dominant-baseline="central">local</text><text x="1600" y="1314" font-family="Helvetica Neue, Helvetica, Arial, sans-serif" font-size="23" font-weight="400" fill="#475569" text-anchor="middle" data-role="label">Dashed = conditional (CF platform / pipeline workflows). Solid = core daily loop.</text><text x="1600" y="1348" font-family="Helvetica Neue, Helvetica, Arial, sans-serif" font-size="18" font-weight="400" fill="#94a3b8" text-anchor="middle" data-role="caption">Source: github.com/github-mcp-server, microsoft/playwright-mcp, modelcontextprotocol/servers — 2026-06-28</text></svg>